{"title":"Singles - Original Motion Picture Soundtrack - CD remaster by MC","uid":7450922,"size":1509953686,"categoryP":"audio","categoryS":"flac","magnet":"?xt=urn:btih:b8a98a532a236a9a6c5b6ef723ca4a63b8ecbc57&amp;dn=Singles+-+Original+Motion+Picture+Soundtrack+-+CD+remaster+by+MC&amp;tr=udp%3A%2F%2Ftracker.openbittorrent.com%3A80&amp;tr=udp%3A%2F%2Fopen.demonii.com%3A1337&amp;tr=udp%3A%2F%2Ftracker.coppersurfer.tk%3A6969&amp;tr=udp%3A%2F%2Fexodus.desync.com%3A6969","seeders":1,"leechers":0,"uploader":"beavis39","files":-1,"time":1342507943,"description":"Singles - Original Motion Picture Soundtrack - CD remaster by MC Lurken (a.k.a. Beavis39)\n\n\n\n!!!!!!!!!!!!!THIS IS NOT AN OFFICIAL REMASTER, THIS IS A FAN RELEASE!!!!!!!!!!!!!!\n!!!!!!!!!!!!!THIS IS NOT AN OFFICIAL REMASTER, THIS IS A FAN RELEASE!!!!!!!!!!!!!!\n!!!!!!!!!!!!!THIS IS NOT AN OFFICIAL REMASTER, THIS IS A FAN RELEASE!!!!!!!!!!!!!!\n\n\n\n1 - Alice In Chains - Would?\n2 - Pearl Jam - Breath\n3 - Chris Cornell - Seasons\n4 - Paul Westerberg - Dyslexic Heart\n5 - Lovemongers - Battle Of Evermore\n6 - Mother Love Bone - Chloe Dancer , Crown Of Thorns\n7 - Soundgarden - Birth Ritual\n8 - Pearl Jam - State Of Love And Trust\n9 - Mudhoney - Overblown\n10 - Paul Westerberg - Waiting For Somebody\n11 - Jimi Hendrix - May This Be Love\n12 - Screaming Trees - Nearly Lost You\n13 - Smashing Pumpkins - Drown\n\n\n\nSetup:\n-HP G72-250US\n-Intel Core i3 M350 2.27GHz\n-8Gb PC3-10700 RAM\n-Win7 64-bit SP1\n-SB X-Fi Surround 5.1\n\nProcess:\n-16-bit/44.1kHz files ripped from the CD and joined in Wavelab 6\n-DC offset removed, this will yield a file with a bit depth of 18-24 bits\n-Resample to 384kHz in Wavelab w/crystal resampler ultra(slow) relax background priority\n-Create new 64-bit/384kHz master recording in Wavelab (0db gain)\n\nAs reported in Wavelab:\n-Original 16/44 - Apparent Bit Resolution = 16, Peak = 0db\n-DC Offset Removed - Apparent Bit Resolution = 19, Peak = 0.001db\n-Final Recording - Apparent Bit Resolution = 41, Peak = 0.49db\n\n-Resample 64-bit/384kHz to 64-bit/96kHz in Wavelab w/crystal resampler ultra(slow) relax background priority\n-Apply loudness maximizer (0.2db) and MBIT+ 24-bit Dither (Noise Shaping - Light, Dither Amount - High, Auto-blanking - on) in Wavelab w/Izotope Ozone 4 VST Plugin\n-Flac encode level 0 with Trader's Little Helper\n-Tag and pic with xrecode II\n\n\nfoobar2000 1.1.13 / Dynamic Range Meter 1.1.1\nlog date: 2012-07-16 21:44:05\n\n--------------------------------------------------------------------------------\nAnalyzed: ? / ?\n--------------------------------------------------------------------------------\n\nDR         Peak         RMS     Duration Track\n--------------------------------------------------------------------------------\nDR11      -0.07 dB   -12.98 dB      3:29 ?-01 - Alice In Chains - Would\nDR12      -0.07 dB   -13.10 dB      5:28 ?-02 - Pearl Jam - Breath\nDR13      -0.07 dB   -16.41 dB      5:48 ?-03 - Chris Cornell - Seasons\nDR12      -0.07 dB   -14.12 dB      4:33 ?-04 - Paul Westerberg - Dyslexic Heart\nDR11      -0.07 dB   -11.84 dB      5:45 ?-05 - Lovemongers - Battle Of Evermore\nDR11      -0.07 dB   -14.58 dB      8:19 ?-06 - Mother Love Bone - Chloe Dancer , Crown Of Thorns\nDR11      -0.07 dB   -12.24 dB      6:08 ?-07 - Soundgarden - Birth Ritual\nDR11      -0.07 dB   -12.36 dB      3:48 ?-08 - Pearl Jam - State Of Love And Trust\nDR12      -0.08 dB   -13.32 dB      3:03 ?-09 - Mudhoney - Overblown\nDR12      -0.07 dB   -13.15 dB      3:28 ?-10 - Paul Westerberg - Waiting For Somebody\nDR13      -0.07 dB   -15.68 dB      3:12 ?-11 - Jimi Hendrix - May This Be Love\nDR10      -0.13 dB   -12.04 dB      4:10 ?-12 - Screaming Trees - Nearly Lost You\nDR12      -0.07 dB   -14.67 dB      8:17 ?-13 - Smashing Pumpkins - Drown\n--------------------------------------------------------------------------------\n\nNumber of tracks:  13\nOfficial DR value: DR12\n\nSamplerate:        96000 Hz\nChannels:          2\nBits per sample:   24\nBitrate:           4608 kbps\nCodec:             PCM\n\n\n\nenjoy :)","torrent":{"xt":"urn:btih:b8a98a532a236a9a6c5b6ef723ca4a63b8ecbc57","amp;dn":"Singles+-+Original+Motion+Picture+Soundtrack+-+CD+remaster+by+MC","amp;tr":["udp%3A%2F%2Ftracker.openbittorrent.com%3A80","udp%3A%2F%2Fopen.demonii.com%3A1337","udp%3A%2F%2Ftracker.coppersurfer.tk%3A6969","udp%3A%2F%2Fexodus.desync.com%3A6969"],"infoHash":"b8a98a532a236a9a6c5b6ef723ca4a63b8ecbc57","infoHashBuffer":{"type":"Buffer","data":[184,169,138,83,42,35,106,154,108,91,110,247,35,202,74,99,184,236,188,87]},"announce":[],"urlList":[]}}